<svg xmlns="http://www.w3.org/2000/svg" xmlns:xlink="http://www.w3.org/1999/xlink" version="1.1" id="Layer_1" x="0px" y="0px" style="enable-background:new 0 0 1080 1080;" xml:space="preserve" viewBox="421.45 508.65 237.09 62.7">
<style type="text/css">
	.st0{fill:#748867;}
	.st1{fill:#FFFFFF;}
	.st2{fill:#A7BB9D;}
</style>
<g>
	<path class="st2" d="M461.86,571.35v-50.01h8.44v29.14c0,0.52,0,1.05,0,1.57c0,8.58-0.8,15.01-2.4,19.3H461.86z"/>
	<path class="st2" d="M478.96,525.78c1.46-1.94,3.28-3.23,5.46-3.86c2.18-0.58,4.65-0.87,7.39-0.87s4.76,0.05,6.04,0.15   c1.28,0.1,2.58,0.3,3.89,0.62c1.31,0.31,2.35,0.79,3.13,1.42c0.78,0.63,1.48,1.46,2.11,2.47c1.21,1.84,1.82,4.92,1.82,9.24   c0,6.26-3.49,9.39-10.48,9.39h-13.75c0,3.79,0.63,6.24,1.89,7.35c0.68,0.63,1.47,1.04,2.36,1.24s3.48,0.29,7.75,0.29   c4.27,0,8.1-0.27,11.5-0.8v5.89c-3.98,1.36-10.38,2.04-19.21,2.04c-4.85,0-8.19-1.47-10.01-4.4c-1.82-2.94-2.73-8.05-2.73-15.36   C476.12,533.29,477.07,528.35,478.96,525.78z M500.36,534.66c0-2.91-0.4-4.75-1.2-5.53c-0.8-0.78-2.71-1.16-5.71-1.16   c-3.83,0-6.14,0.44-6.91,1.31c-1.02,1.12-1.6,2.42-1.75,3.9c-0.15,1.48-0.22,3.02-0.22,4.62h12.08   C499.12,537.79,500.36,536.75,500.36,534.66z"/>
	<path class="st2" d="M514.11,571.35v-50.01h8.44v29.14c0,0.52,0,1.05,0,1.57c0,8.58-0.8,15.01-2.4,19.3H514.11z"/>
	<path class="st0" d="M530.01,521.27h9.1l9.75,28.16l9.97-28.16h9.02l-14.56,38.64h-9.17L530.01,521.27z"/>
	<path class="st0" d="M571.2,559.91v-38.64h8.44v38.64H571.2z"/>
	<path class="st0" d="M587.37,546.16v-37.51h8.44v36.49c0,2.72,0.29,4.61,0.87,5.68c0.58,1.07,1.5,1.79,2.77,2.18   c3.3,1.02,5.12,1.53,5.46,1.53v5.38h-7.71c-3.2,0-5.64-1.07-7.31-3.2C588.21,554.57,587.37,551.06,587.37,546.16z"/>
	<path class="st0" d="M606.57,546.16v-37.51h8.44v36.49c0,2.72,0.29,4.61,0.87,5.68c0.58,1.07,1.5,1.79,2.77,2.18   c3.3,1.02,5.12,1.53,5.46,1.53v5.38h-7.71c-3.2,0-5.64-1.07-7.31-3.2C607.41,554.57,606.57,551.06,606.57,546.16z"/>
	<path class="st0" d="M627.53,522.94c4.66-1.6,10.75-2.4,18.27-2.4c8.49,0,12.74,3.98,12.74,11.94v27.44h-6.55l-1.89-4.44   c-0.14,0.29-0.86,0.8-2.15,1.53c-1.29,0.73-3,1.47-5.13,2.22c-2.14,0.75-4.1,1.13-5.89,1.13c-3.3,0-5.9-0.97-7.79-2.91   c-1.89-1.94-2.84-4.32-2.84-7.13v-3.93c0-3.01,0.9-5.47,2.69-7.39c1.79-1.92,4.67-2.87,8.62-2.87c3.95,0,8.11,0,12.48,0   c0.05-1.12,0.07-1.95,0.07-2.51c0-0.56-0.03-0.84-0.07-0.84c0-1.99-0.45-3.35-1.35-4.08c-0.9-0.73-2.27-1.09-4.11-1.09   c-3.59,0-9.29,0.27-17.1,0.8V522.94z M634.73,549.29c0,1.5,0.34,2.52,1.02,3.06c0.68,0.53,1.67,0.8,2.98,0.8   c1.31,0,2.92-0.27,4.84-0.8c1.92-0.53,3.48-1.07,4.7-1.6l1.82-0.8v-8.3l-11.79,0.87c-2.38,0.24-3.57,1.65-3.57,4.22V549.29z"/>
	<g>
		<path class="st2" d="M426.18,545.65l7.68,3.49c-1.44,1.08-2.96,3.54-2.96,4.98c0,2.09,1.58,3.81,5.62,2.3l7.34-2.66    c8.13-2.95,13.24,2.23,13.24,7.77c0,2.09-2.83,8.02-4.48,9.82h-9.14c1.22-0.86,4.12-5.71,4.12-7.15c0-1.8-1.44-3.09-5.33-1.58    l-6.91,2.59c-9,3.38-13.06-1.63-13.82-7.63C420.89,552.43,424.6,547.59,426.18,545.65z"/>
	</g>
	<path class="st2" d="M457.78,521.19h-23.22c-4.22,0-7.46,1.15-9.72,3.46c-2.26,2.3-3.39,5.74-3.39,10.3c0,2.23,0.34,4.33,1.02,6.3   c0.68,1.97,1.77,3.43,3.28,4.4c0,0,4.34,2.95,8.38,3.49h7.78c3.98,0,7.01-1.07,9.1-3.2c0.92-0.92,1.66-2.01,2.22-3.28   c0.56-1.26,0.93-2.45,1.13-3.57c0.19-1.12,0.29-2.29,0.29-3.53c0-1.24-0.07-2.46-0.22-3.68c-0.1-0.44-0.22-0.9-0.36-1.38   c-0.15-0.49-0.26-0.81-0.33-0.98c-0.07-0.17-0.22-0.47-0.44-0.91c-0.22-0.44-0.35-0.7-0.4-0.8l4.88-1.31V521.19z M444.97,540.01   c-0.82,1.28-2.3,1.93-4.44,1.93h-5.17c-3.64,0-5.46-2.33-5.46-6.99c0-1.79,0.34-3.3,1.02-4.51c0.82-1.4,2.38-2.11,4.66-2.11h4.88   c2.13,0,3.63,0.55,4.48,1.64c0.85,1.09,1.27,2.72,1.27,4.88C446.21,537,445.8,538.72,444.97,540.01z"/>
</g>
</svg>